$$$$$ FIRST ON NET IN HD HINDI $$$$$

Hindi Audio Muxing My Best Friend Bharat Saini
 
http://www.imdb.com/title/tt0104438/
 
http://en.wikipedia.org/wiki/Honeymoon_in_Vegas
 
http://img43.imageshack.us/img43/1828/honeymooninvegas5.jpg

Honeymoon in Vegas (1992) BRRip 720p Dual Audio Hindi - English By~ Amit_Anil

File size                                : 1.35 GiB
Duration                                 : 1h 35mn
Overall bit rate                         : 2 018 Kbps

Video
Bit rate                                 : 1 722 Kbps
Video Resolution                         : 1280 x 696
Width                                    : 1280 pixels
Height                                   : 696 pixels
Display aspect ratio                     : 1.85:1
Frame rate                               : 23.976 fps
Stream size                              : 1.15 GiB (85%)

Audio #1
Channel(s)                               : 2 channels
Stream size                              : 87.7 MiB (6%)
Title                                    : Hindi _By~ Amit_Anil

Audio #2
Channel(s)                               : 2 channels
Stream size                              : 87.7 MiB (6%)
Title                                    : English



 
http://img16.imageshack.us/img16/5328/snapshot20130308001430.jpg
 
http://img189.imageshack.us/img189/1200/snapshot20130308001313.jpg
 
http://img805.imageshack.us/img805/9131/snapshot20130308001232.jpg
 
http://img811.imageshack.us/img811/4853/snapshot20130308001028.jpg



SEED PLEASE

Keep Seeding After Downloading...